<?xml version="1.0" encoding="utf-8"?>
<!-- Generator: Adobe Illustrator 19.0.0, SVG Export Plug-In . SVG Version: 6.00 Build 0)  -->
<svg version="1.1" id="Layer_1" xmlns="http://www.w3.org/2000/svg" xmlns:xlink="http://www.w3.org/1999/xlink" x="0px" y="0px"
	 viewBox="0 0 256 256" style="enable-background:new 0 0 256 256;" xml:space="preserve">
<style type="text/css">
	.st0{fill:#6867CD;}
	.st1{fill:#FFFFFF;}
	.st2{fill-rule:evenodd;clip-rule:evenodd;fill:#FFFFFF;}
</style>
<rect id="XMLID_9_" class="st0" width="256" height="256"/>
<path id="XMLID_7_" class="st1" d="M229.7,107.4c-1.7,3.5-3.4,7.1-5.2,10.6c-7.2,14.6-14.4,29.3-21.6,43.9c-0.2,0.5-0.7,0.9-1.1,1.3
	c-2.9,0-5.9,0-8.8,0c0.1-0.2,0.1-0.4,0.2-0.6c8.9-18.1,17.8-36.1,26.6-54.2c0.4-0.9,1.1-1.3,2.1-1.3c2.4,0.1,4.8,0,7.1,0
	c0.2,0,0.4,0,0.6,0C229.7,107.3,229.7,107.3,229.7,107.4z"/>
<path id="XMLID_6_" class="st1" d="M97.1,161.8c-2.8,0-5.5,0-8.3,0c0-0.3,0-0.5,0-0.7c0-15.1,0-30.1,0-45.2
	c0-5.9,4.2-10.2,10.1-10.2c4.1,0,8.2-0.2,12.4,0c9.2,0.4,16.1,4.7,19.8,13.2c6.1,14-3.1,28.5-17.3,30c-2.1,0.2-4.1,0.3-6.2,0.5
	c-0.1,0-0.2,0-0.3,0c0-2.8,0-5.5,0-8.4c0.3,0,0.6,0,0.8,0c1.9-0.1,3.8,0,5.7-0.3c5.5-0.9,10-5.6,10.8-10.9c1-7.2-3.8-13.9-10.9-15.4
	c-2.4-0.5-4.9-0.4-7.3-0.4c-2.2,0-4.5,0-6.7,0c-0.3,0-0.5,0-0.8,0c-1,0.1-1.5,0.6-1.7,1.6c-0.1,0.4-0.1,0.9-0.1,1.4
	c0,14.7,0,29.3,0,44C97.1,161.2,97.1,161.4,97.1,161.8z"/>
<path id="XMLID_5_" class="st1" d="M181.4,149.1c-2.8,0-5.5,0-8.3,0c0-1,0-1.9,0-2.8c0-6,0-12,0.1-18.1c0-5.7-3.8-11-9.4-13.1
	c-8.6-3.3-17.9,2.5-18.8,11.7c-0.7,7.1,4,12.9,11.2,13.8c1.4,0.2,2.9,0.3,4.3,0.4c0.4,0,0.7,0.1,1.1,0.1c0,2.7,0,5.3,0,8.1
	c-0.9,0-1.9,0-2.8,0c-4.2-0.2-8.2-0.9-11.8-3.1c-6-3.5-9.3-8.7-10.2-15.6c-1.2-10.4,5.1-20.6,15.1-23.6c9.3-2.8,17.4-0.4,24,6.8
	c3.7,4,5.5,8.7,5.4,14.2c0,6.8,0,13.6,0,20.4C181.4,148.6,181.4,148.8,181.4,149.1z"/>
<path id="XMLID_4_" class="st1" d="M198.4,139.1c-5.2-10.7-10.3-21.2-15.5-31.9c1.3,0,2.5,0,3.7,0c1.4,0,2.9,0.1,4.3,0
	c1,0,1.5,0.4,1.9,1.2c1.3,2.8,2.6,5.6,4,8.4c1.5,3.1,3,6.1,4.6,9.1c0.8,1.7,1.4,3.4,0.9,5.2c-0.2,0.6-0.4,1.2-0.7,1.8
	c-0.9,1.8-1.9,3.5-2.8,5.3C198.7,138.6,198.6,138.8,198.4,139.1z"/>
<path id="XMLID_3_" class="st1" d="M75.9,93.7c2.8,0,5.5,0,8.3,0c0,0.3,0,0.5,0,0.7c0,15.1,0,30.1,0,45.2c0,5.9-4.2,10.2-10.1,10.2
	c-4.1,0-8.2,0.2-12.4,0c-9.2-0.4-16.1-4.7-19.8-13.2c-6.1-14,3.1-28.5,17.3-30c2.1-0.2,4.1-0.3,6.2-0.5c0.1,0,0.2,0,0.3,0
	c0,2.8,0,5.5,0,8.4c-0.3,0-0.6,0-0.8,0c-1.9,0.1-3.8,0-5.7,0.3c-5.5,0.9-10,5.6-10.8,10.9c-1,7.2,3.8,13.9,10.9,15.4
	c2.4,0.5,4.9,0.4,7.3,0.4c2.2,0,4.5,0,6.7,0c0.3,0,0.5,0,0.8,0c1-0.1,1.5-0.6,1.7-1.6c0.1-0.4,0.1-0.9,0.1-1.4c0-14.7,0-29.3,0-44
	C75.9,94.4,75.9,94.1,75.9,93.7z"/>
<circle id="XMLID_2_" class="st2" cx="31.3" cy="97.7" r="5"/>
<rect id="XMLID_1_" x="27" y="106.7" class="st1" width="8.6" height="42.6"/>
</svg>
